<svg width="20" height="16" viewBox="0 0 20 16" fill="none" xmlns="http://www.w3.org/2000/svg">
<path d="M0 8C0 4.229 -1.19209e-07 2.343 1.172 1.172C2.343 -1.19209e-07 4.229 0 8 0H12C15.771 0 17.657 -1.19209e-07 18.828 1.172C20 2.343 20 4.229 20 8C20 11.771 20 13.657 18.828 14.828C17.657 16 15.771 16 12 16H8C4.229 16 2.343 16 1.172 14.828C-1.19209e-07 13.657 0 11.771 0 8Z" stroke="#F8F8F8" stroke-width="1.5"/>
<path d="M8 12H4M12 12H10.5M0 6H20" stroke="#F8F8F8" stroke-width="1.5" stroke-linecap="round"/>
</svg>
