<svg width="21" height="27" viewBox="0 0 21 27" fill="none" xmlns="http://www.w3.org/2000/svg">
<path d="M10.5 26.4167C10.5 26.4167 20.1875 18.6667 20.1875 10.2708C20.1875 4.92076 15.8501 0.583344 10.5 0.583344C5.14992 0.583344 0.8125 4.92076 0.8125 10.2708C0.8125 18.6667 10.5 26.4167 10.5 26.4167Z" stroke="white" stroke-width="2" stroke-linejoin="round"/>
<path d="M10.5 14.1458C11.0089 14.1458 11.5128 14.0456 11.9829 13.8509C12.453 13.6561 12.8802 13.3707 13.24 13.0109C13.5999 12.6511 13.8853 12.2239 14.08 11.7537C14.2748 11.2836 14.375 10.7797 14.375 10.2708C14.375 9.76197 14.2748 9.25808 14.08 8.78795C13.8853 8.31781 13.5999 7.89063 13.24 7.5308C12.8802 7.17098 12.453 6.88555 11.9829 6.69081C11.5128 6.49607 11.0089 6.39584 10.5 6.39584C9.47229 6.39584 8.48666 6.8041 7.75996 7.5308C7.03326 8.25751 6.625 9.24313 6.625 10.2708C6.625 11.2986 7.03326 12.2842 7.75996 13.0109C8.48666 13.7376 9.47229 14.1458 10.5 14.1458Z" stroke="white" stroke-width="2" stroke-linejoin="round"/>
</svg>
