<svg width="14" height="14" viewBox="0 0 14 14" fill="none" xmlns="http://www.w3.org/2000/svg">
<path d="M11.4354 4.51238L7.33602 8.547C7.24657 8.63549 7.12583 8.68512 7.00002 8.68512C6.8742 8.68512 6.75346 8.63549 6.66402 8.547L2.56464 4.51325C2.47464 4.42481 2.35351 4.37526 2.22733 4.37526C2.10115 4.37526 1.98001 4.42481 1.89002 4.51325C1.8457 4.55646 1.81048 4.6081 1.78643 4.66513C1.76238 4.72216 1.74999 4.78342 1.74999 4.84532C1.74999 4.90721 1.76238 4.96848 1.78643 5.02551C1.81048 5.08254 1.8457 5.13417 1.89002 5.17738L5.98852 9.21113C6.25847 9.47619 6.62169 9.62469 7.00002 9.62469C7.37835 9.62469 7.74156 9.47619 8.01152 9.21113L12.11 5.17738C12.1545 5.13416 12.1898 5.08247 12.2139 5.02536C12.2381 4.96825 12.2505 4.90688 12.2505 4.84488C12.2505 4.78288 12.2381 4.72151 12.2139 4.6644C12.1898 4.60729 12.1545 4.5556 12.11 4.51238C12.02 4.42394 11.8989 4.37438 11.7727 4.37438C11.6465 4.37438 11.5254 4.42394 11.4354 4.51238Z" fill="white"/>
</svg>
