<svg width="19" height="19" viewBox="0 0 19 19" fill="none" xmlns="http://www.w3.org/2000/svg">
<g clip-path="url(#clip0_62_3)">
<path d="M17.7977 14.8332L14.7887 11.8242L12.4742 10.868C13.2449 9.77213 13.6577 8.46473 13.6562 7.125C13.6562 3.52365 10.7264 0.59375 7.125 0.59375C3.52365 0.59375 0.59375 3.52365 0.59375 7.125C0.59375 10.7264 3.52365 13.6562 7.125 13.6562C8.47639 13.6578 9.7946 13.2378 10.896 12.4548L11.8497 14.763L14.8586 17.7721C15.0516 17.9651 15.2807 18.1182 15.5328 18.2226C15.7849 18.327 16.0552 18.3808 16.3281 18.3808C16.601 18.3808 16.8712 18.3271 17.1233 18.2226C17.3755 18.1182 17.6046 17.9652 17.7976 17.7722C17.9905 17.5792 18.1436 17.3501 18.2481 17.098C18.3525 16.8459 18.4063 16.5756 18.4063 16.3027C18.4063 16.0298 18.3526 15.7596 18.2481 15.5074C18.1437 15.2553 17.9906 15.0262 17.7977 14.8332ZM1.78125 7.125C1.78125 4.17852 4.17852 1.78125 7.125 1.78125C10.0715 1.78125 12.4688 4.17852 12.4688 7.125C12.4688 10.0715 10.0715 12.4688 7.125 12.4688C4.17852 12.4688 1.78125 10.0715 1.78125 7.125ZM16.9579 16.9324C16.7907 17.0992 16.5643 17.1929 16.3281 17.1929C16.092 17.1929 15.8655 17.0992 15.6983 16.9324L12.8568 14.0909L11.9701 11.9447L14.1164 12.8313L16.958 15.6729C17.1247 15.8401 17.2184 16.0665 17.2184 16.3027C17.2184 16.5388 17.1247 16.7653 16.9579 16.9324Z" fill="#333333"/>
</g>
<defs>
<clipPath id="clip0_62_3">
<rect width="19" height="19" fill="white"/>
</clipPath>
</defs>
</svg>
