<svg width="25" height="25" viewBox="0 0 25 25" fill="none" xmlns="http://www.w3.org/2000/svg">
<path d="M8.05782 20.4203L15.2625 13.1C15.4205 12.9403 15.5091 12.7247 15.5091 12.5C15.5091 12.2753 15.4205 12.0597 15.2625 11.9L8.05938 4.57968C7.90145 4.41897 7.81295 4.20266 7.81295 3.97734C7.81295 3.75201 7.90145 3.53571 8.05938 3.37499C8.13653 3.29586 8.22874 3.23296 8.33058 3.19002C8.43242 3.14708 8.54183 3.12495 8.65235 3.12495C8.76287 3.12495 8.87228 3.14708 8.97411 3.19002C9.07595 3.23296 9.16816 3.29586 9.24532 3.37499L16.4484 10.6937C16.9218 11.1758 17.187 11.8244 17.187 12.5C17.187 13.1756 16.9218 13.8242 16.4484 14.3062L9.24532 21.625C9.16814 21.7044 9.07583 21.7675 8.97385 21.8106C8.87187 21.8536 8.76228 21.8758 8.65157 21.8758C8.54086 21.8758 8.43127 21.8536 8.32929 21.8106C8.2273 21.7675 8.13499 21.7044 8.05782 21.625C7.89989 21.4643 7.81139 21.248 7.81139 21.0227C7.81139 20.7973 7.89989 20.581 8.05782 20.4203Z" fill="#7DB2FF"/>
</svg>
