<svg width="25" height="25" viewBox="0 0 25 25" fill="none" xmlns="http://www.w3.org/2000/svg">
<path d="M16.9422 20.4203L9.73749 13.1C9.57948 12.9403 9.49085 12.7247 9.49085 12.5C9.49085 12.2753 9.57948 12.0597 9.73749 11.9L16.9406 4.57968C17.0986 4.41897 17.187 4.20266 17.187 3.97734C17.187 3.75202 17.0986 3.53571 16.9406 3.375C16.8635 3.29586 16.7713 3.23297 16.6694 3.19002C16.5676 3.14708 16.4582 3.12495 16.3477 3.12495C16.2371 3.12495 16.1277 3.14708 16.0259 3.19002C15.924 3.23297 15.8318 3.29586 15.7547 3.375L8.55156 10.6937C8.07824 11.1758 7.81305 11.8244 7.81305 12.5C7.81305 13.1756 8.07824 13.8242 8.55156 14.3062L15.7547 21.625C15.8319 21.7044 15.9242 21.7675 16.0262 21.8106C16.1281 21.8536 16.2377 21.8758 16.3484 21.8758C16.4591 21.8758 16.5687 21.8536 16.6707 21.8106C16.7727 21.7675 16.865 21.7044 16.9422 21.625C17.1001 21.4643 17.1886 21.248 17.1886 21.0226C17.1886 20.7973 17.1001 20.581 16.9422 20.4203Z" fill="#7DB2FF"/>
</svg>
