<svg width="52" height="52" viewBox="0 0 52 52" fill="none" xmlns="http://www.w3.org/2000/svg">
<path d="M41.1667 13H37.7303L35.5637 10.8333C34.3092 9.57882 32.1078 8.66666 30.3333 8.66666H21.6667C19.8922 8.66666 17.6908 9.57882 16.4363 10.8333L14.2697 13H10.8333C7.24966 13 4.33333 15.9163 4.33333 19.5V36.8333C4.33333 40.417 7.24966 43.3333 10.8333 43.3333H41.1667C44.7503 43.3333 47.6667 40.417 47.6667 36.8333V19.5C47.6667 15.9163 44.7503 13 41.1667 13ZM26 34.6667C23.9885 34.6664 22.0595 33.867 20.6373 32.4445C19.2152 31.0219 18.4164 29.0927 18.4167 27.0812C18.4169 25.0696 19.2163 23.1406 20.6389 21.7185C22.0614 20.2963 23.9906 19.4975 26.0022 19.4978C28.0137 19.4981 29.9427 20.2975 31.3648 21.72C32.787 23.1426 33.5858 25.0718 33.5855 27.0833C33.5852 29.0948 32.7859 31.0238 31.3633 32.446C29.9407 33.8681 28.0115 34.6669 26 34.6667ZM39 24.4812C38.6301 24.4812 38.2638 24.4083 37.9221 24.2668C37.5804 24.1252 37.2699 23.9177 37.0083 23.6562C36.7468 23.3946 36.5393 23.0841 36.3977 22.7424C36.2562 22.4006 36.1833 22.0344 36.1833 21.6645C36.1833 21.2946 36.2562 20.9283 36.3977 20.5866C36.5393 20.2449 36.7468 19.9344 37.0083 19.6728C37.2699 19.4113 37.5804 19.2038 37.9221 19.0622C38.2638 18.9207 38.6301 18.8478 39 18.8478C39.747 18.8478 40.4634 19.1446 40.9917 19.6728C41.5199 20.201 41.8167 20.9175 41.8167 21.6645C41.8167 22.4115 41.5199 23.1279 40.9917 23.6562C40.4634 24.1844 39.747 24.4812 39 24.4812Z" fill="#333333"/>
</svg>
