<svg width="48" height="48" viewBox="0 0 48 48" fill="none" xmlns="http://www.w3.org/2000/svg">
<path d="M37.2548 11.8627H34.157L32.2037 9.90946C31.0728 8.77853 29.0883 7.95622 27.4886 7.95622H19.6757C18.076 7.95622 16.0915 8.77853 14.9606 9.90946L13.0073 11.8627H9.90951C6.67886 11.8627 4.0498 14.4917 4.0498 17.7224V33.3483C4.0498 36.5789 6.67886 39.208 9.90951 39.208H37.2548C40.4854 39.208 43.1145 36.5789 43.1145 33.3483V17.7224C43.1145 14.4917 40.4854 11.8627 37.2548 11.8627ZM23.5821 31.395C21.7688 31.3948 20.0298 30.6742 18.7477 29.3917C17.4657 28.1093 16.7456 26.3701 16.7458 24.5568C16.7461 22.7434 17.4667 21.0044 18.7491 19.7223C20.0315 18.4403 21.7707 17.7202 23.5841 17.7204C25.3975 17.7207 27.1365 18.4413 28.4185 19.7237C29.7006 21.0062 30.4207 22.7453 30.4204 24.5587C30.4202 26.3721 29.6996 28.1111 28.4171 29.3931C27.1347 30.6752 25.3955 31.3953 23.5821 31.395ZM35.3015 22.2129C34.9681 22.2129 34.6379 22.1472 34.3298 22.0196C34.0218 21.892 33.7418 21.7049 33.5061 21.4692C33.2703 21.2334 33.0832 20.9535 32.9556 20.6454C32.828 20.3373 32.7623 20.0071 32.7623 19.6737C32.7623 19.3402 32.828 19.01 32.9556 18.702C33.0832 18.3939 33.2703 18.114 33.5061 17.8782C33.7418 17.6424 34.0218 17.4554 34.3298 17.3278C34.6379 17.2001 34.9681 17.1345 35.3015 17.1345C35.975 17.1345 36.6208 17.402 37.097 17.8782C37.5732 18.3544 37.8408 19.0002 37.8408 19.6737C37.8408 20.3471 37.5732 20.993 37.097 21.4692C36.6208 21.9454 35.975 22.2129 35.3015 22.2129Z" fill="#333333"/>
</svg>
