<svg width="47" height="48" viewBox="0 0 47 48" fill="none" xmlns="http://www.w3.org/2000/svg">
<path d="M37.1562 11.8627H34.0584L32.1052 9.90946C30.9742 8.77853 28.9898 7.95622 27.3901 7.95622H19.5771C17.9774 7.95622 15.9929 8.77853 14.862 9.90946L12.9088 11.8627H9.81095C6.5803 11.8627 3.95125 14.4917 3.95125 17.7224V33.3483C3.95125 36.5789 6.5803 39.208 9.81095 39.208H37.1562C40.3869 39.208 43.0159 36.5789 43.0159 33.3483V17.7224C43.0159 14.4917 40.3869 11.8627 37.1562 11.8627ZM23.4836 31.395C21.6702 31.3948 19.9312 30.6742 18.6492 29.3917C17.3671 28.1093 16.647 26.3701 16.6473 24.5568C16.6475 22.7434 17.3681 21.0044 18.6506 19.7223C19.933 18.4403 21.6722 17.7202 23.4855 17.7204C25.2989 17.7207 27.0379 18.4413 28.32 19.7237C29.602 21.0062 30.3221 22.7453 30.3219 24.5587C30.3216 26.3721 29.601 28.1111 28.3186 29.3931C27.0361 30.6752 25.297 31.3953 23.4836 31.395ZM35.203 22.2129C34.8695 22.2129 34.5394 22.1472 34.2313 22.0196C33.9232 21.892 33.6433 21.7049 33.4075 21.4692C33.1717 21.2334 32.9847 20.9535 32.8571 20.6454C32.7295 20.3373 32.6638 20.0071 32.6638 19.6737C32.6638 19.3402 32.7295 19.01 32.8571 18.702C32.9847 18.3939 33.1717 18.114 33.4075 17.8782C33.6433 17.6424 33.9232 17.4554 34.2313 17.3278C34.5394 17.2001 34.8695 17.1345 35.203 17.1345C35.8764 17.1345 36.5223 17.402 36.9985 17.8782C37.4747 18.3544 37.7422 19.0002 37.7422 19.6737C37.7422 20.3471 37.4747 20.993 36.9985 21.4692C36.5223 21.9454 35.8764 22.2129 35.203 22.2129Z" fill="#333333"/>
</svg>
