<svg width="48" height="48" viewBox="0 0 48 48" fill="none" xmlns="http://www.w3.org/2000/svg">
<path d="M37.2547 11.8627H34.1569L32.2037 9.90945C31.0727 8.77853 29.0882 7.95622 27.4886 7.95622H19.6756C18.0759 7.95622 16.0914 8.77853 14.9605 9.90945L13.0073 11.8627H9.90945C6.6788 11.8627 4.04974 14.4917 4.04974 17.7224V33.3483C4.04974 36.5789 6.6788 39.208 9.90945 39.208H37.2547C40.4854 39.208 43.1144 36.5789 43.1144 33.3483V17.7224C43.1144 14.4917 40.4854 11.8627 37.2547 11.8627ZM23.5821 31.395C21.7687 31.3948 20.0297 30.6742 18.7477 29.3917C17.4656 28.1093 16.7455 26.3701 16.7458 24.5568C16.746 22.7434 17.4666 21.0044 18.7491 19.7223C20.0315 18.4403 21.7707 17.7202 23.584 17.7204C25.3974 17.7207 27.1364 18.4413 28.4184 19.7237C29.7005 21.0061 30.4206 22.7453 30.4204 24.5587C30.4201 26.3721 29.6995 28.1111 28.4171 29.3931C27.1346 30.6752 25.3954 31.3953 23.5821 31.395ZM35.3015 22.2129C34.968 22.2129 34.6378 22.1472 34.3298 22.0196C34.0217 21.892 33.7418 21.7049 33.506 21.4692C33.2702 21.2334 33.0832 20.9535 32.9556 20.6454C32.828 20.3373 32.7623 20.0071 32.7623 19.6737C32.7623 19.3402 32.828 19.01 32.9556 18.702C33.0832 18.3939 33.2702 18.114 33.506 17.8782C33.7418 17.6424 34.0217 17.4554 34.3298 17.3278C34.6378 17.2001 34.968 17.1345 35.3015 17.1345C35.9749 17.1345 36.6208 17.402 37.097 17.8782C37.5732 18.3544 37.8407 19.0002 37.8407 19.6737C37.8407 20.3471 37.5732 20.993 37.097 21.4692C36.6208 21.9454 35.9749 22.2129 35.3015 22.2129Z" fill="#333333"/>
</svg>
